HIERARCHY
ROOT joint_Root
{
	OFFSET 0.0 0.0 0.0
	CHANNELS 6 Xposition Yposition Zposition Zrotation Xrotation Yrotation 
	JOINT Hips
	{
		OFFSET 4.5925 91.4895 -427.239
		CHANNELS 6 Xposition Yposition Zposition Zrotation Xrotation Yrotation 
		JOINT Spine
		{
			OFFSET 15.7357 0.0 0.0
			CHANNELS 6 Xposition Yposition Zposition Zrotation Xrotation Yrotation 
			JOINT Chest
			{
				OFFSET 8.98455 -0.406207 0.0
				CHANNELS 6 Xposition Yposition Zposition Zrotation Xrotation Yrotation 
				JOINT Neck
				{
					OFFSET 16.3773 0.0 0.0
					CHANNELS 6 Xposition Yposition Zposition Zrotation Xrotation Yrotation 
					JOINT Head
					{
						OFFSET 6.45672 0.0 0.0
						CHANNELS 6 Xposition Yposition Zposition Zrotation Xrotation Yrotation 
						End Site
						{
							OFFSET 0.0 0.0 0.0
						}
					}
				}
				JOINT Shoulder_L
				{
					OFFSET 12.9942 -0.242716 4.98039
					CHANNELS 6 Xposition Yposition Zposition Zrotation Xrotation Yrotation 
					JOINT UpperArm_L
					{
						OFFSET 5.34809 0.0 0.0
						CHANNELS 6 Xposition Yposition Zposition Zrotation Xrotation Yrotation 
						JOINT LowerArm_L
						{
							OFFSET 24.3286 1.87007e-05 0.0
							CHANNELS 6 Xposition Yposition Zposition Zrotation Xrotation Yrotation 
							JOINT Hand_L
							{
								OFFSET 22.2916 0.0 0.0
								CHANNELS 6 Xposition Yposition Zposition Zrotation Xrotation Yrotation 
								End Site
								{
									OFFSET 0.0 0.0 0.0
								}
							}
						}
					}
				}
				JOINT Shoulder_R
				{
					OFFSET 12.9945 -0.242716 -4.98039
					CHANNELS 6 Xposition Yposition Zposition Zrotation Xrotation Yrotation 
					JOINT UpperArm_R
					{
						OFFSET -5.34813 0.0 0.0
						CHANNELS 6 Xposition Yposition Zposition Zrotation Xrotation Yrotation 
						JOINT LowerArm_R
						{
							OFFSET -24.3289 0.000322201 0.0
							CHANNELS 6 Xposition Yposition Zposition Zrotation Xrotation Yrotation 
							JOINT Hand_R
							{
								OFFSET -22.2915 -0.000108084 0.0
								CHANNELS 6 Xposition Yposition Zposition Zrotation Xrotation Yrotation 
								End Site
								{
									OFFSET 0.0 0.0 0.0
								}
							}
						}
					}
				}
			}
		}
		JOINT UpperLeg_L
		{
			OFFSET -2.19248 -6.46944 0.0
			CHANNELS 6 Xposition Yposition Zposition Zrotation Xrotation Yrotation 
			JOINT LowerLeg_L
			{
				OFFSET 39.0811 0.0 -1.23785e-05
				CHANNELS 6 Xposition Yposition Zposition Zrotation Xrotation Yrotation 
				JOINT Foot_L
				{
					OFFSET 40.9854 0.0 -1.26872e-05
					CHANNELS 6 Xposition Yposition Zposition Zrotation Xrotation Yrotation 
					JOINT Toes_L
					{
						OFFSET 11.7543 0.0 0.0
						CHANNELS 6 Xposition Yposition Zposition Zrotation Xrotation Yrotation 
						End Site
						{
							OFFSET 0.0 0.0 0.0
						}
					}
				}
			}
		}
		JOINT UpperLeg_R
		{
			OFFSET -2.19251 6.46944 0.0
			CHANNELS 6 Xposition Yposition Zposition Zrotation Xrotation Yrotation 
			JOINT LowerLeg_R
			{
				OFFSET -39.0811 -0.00228153 -0.0401928
				CHANNELS 6 Xposition Yposition Zposition Zrotation Xrotation Yrotation 
				JOINT Foot_R
				{
					OFFSET -40.9854 0.0 0.0
					CHANNELS 6 Xposition Yposition Zposition Zrotation Xrotation Yrotation 
					JOINT Toes_R
					{
						OFFSET -11.7543 0.0 0.0
						CHANNELS 6 Xposition Yposition Zposition Zrotation Xrotation Yrotation 
						End Site
						{
							OFFSET 0.0 0.0 0.0
						}
					}
				}
			}
		}
	}
}
MOTION
Frames:	7
Frame Time:	0.0333333
0.000000 0.000000 0.000000 0.000000 0.000000 -0.000000 140.249000 93.532200 143.652000 92.678200 -34.334300 -1.273230 15.735700 0.000005 -0.000001 39.457800 81.375200 -37.794100 8.984550 -0.406207 -0.000000 3.474610 -13.365500 3.742630 16.377300 -0.000001 -0.000001 1.112540 -15.585400 2.513150 6.456720 -0.000001 -0.000000 1.958500 -15.414100 6.998780 12.994200 -0.242716 4.980390 -87.272400 -9.846820 -74.434500 5.348090 -0.000007 -0.000001 -59.414300 27.155300 -51.389400 24.328600 0.000019 0.000005 12.174700 -5.766990 -114.975000 22.291600 -0.000001 0.000005 -1.688490 5.422720 -3.690620 12.994500 -0.242716 -4.980390 91.520200 -4.366610 -70.784700 -5.348130 -0.000001 -0.000004 -65.390500 41.902700 37.965600 -24.328900 0.000322 -0.000009 -11.641300 -0.369296 -88.212100 -22.291500 -0.000108 -0.000004 13.934000 5.621030 -12.688000 -2.192480 -6.469440 -0.000000 -173.436000 -20.908700 0.029954 39.081100 -0.000007 -0.000012 -0.004796 0.012685 20.710200 40.985400 -0.000006 -0.000013 -6.887570 10.911800 -55.253400 11.754300 -0.000000 0.000003 -0.032246 -0.227591 -25.906400 -2.192510 6.469440 -0.000001 -176.232000 4.511650 154.311000 -39.081100 -0.002282 -0.040193 -0.009462 0.009471 53.278600 -40.985400 0.000008 0.000006 7.216430 2.285660 -59.300400 -11.754300 -0.000006 -0.000006 -0.027347 -0.205037 -24.966900
0.000000 0.000000 0.000000 0.000000 0.000000 -0.000000 138.985000 93.596600 146.862000 93.939900 -37.662000 -1.537740 15.735700 0.000005 -0.000001 38.002600 81.482600 -36.429800 8.984550 -0.406207 -0.000000 2.983490 -13.476200 3.506090 16.377300 -0.000001 -0.000001 1.125040 -14.713400 2.405710 6.456720 -0.000001 -0.000000 1.093980 -15.089700 8.003220 12.994200 -0.242716 4.980390 -86.448400 -11.866800 -73.206200 5.348090 -0.000007 -0.000001 -56.275000 26.364900 -56.744600 24.328600 0.000019 0.000005 11.246000 -5.648040 -116.334000 22.291600 -0.000001 0.000005 -1.140350 5.418140 -3.536310 12.994500 -0.242716 -4.980390 92.298000 -6.502280 -70.487900 -5.348130 -0.000001 -0.000004 -66.707500 39.264200 39.244500 -24.328900 0.000322 -0.000009 -9.910840 0.067622 -90.386300 -22.291500 -0.000108 -0.000004 14.005600 5.614910 -12.278800 -2.192480 -6.469440 -0.000000 -175.055000 -21.711700 2.107240 39.081100 -0.000007 -0.000012 -0.002541 0.007283 19.234500 40.985400 -0.000006 -0.000013 -6.230880 8.979520 -53.542200 11.754300 -0.000000 0.000003 -0.047070 -0.287167 -28.395500 -2.192510 6.469440 -0.000001 -173.715000 5.989510 153.565000 -39.081100 -0.002282 -0.040193 -0.032847 0.041333 41.151200 -40.985400 0.000008 0.000006 5.692300 5.794340 -62.043900 -11.754300 -0.000006 -0.000006 -0.029308 -0.214276 -25.349800
0.000000 0.000000 0.000000 0.000000 0.000000 -0.000000 137.566000 92.736900 150.187000 95.489900 -40.724700 -1.129540 15.735700 0.000005 -0.000001 37.552500 81.514400 -36.178200 8.984550 -0.406207 -0.000000 2.812400 -13.502300 3.088500 16.377300 -0.000001 -0.000001 1.003390 -14.047200 2.373580 6.456720 -0.000001 -0.000000 0.207637 -14.583700 9.156780 12.994200 -0.242716 4.980390 -85.764400 -12.999600 -71.777000 5.348090 -0.000007 -0.000001 -52.991300 25.906000 -61.002200 24.328600 0.000019 0.000005 10.797400 -5.491970 -116.649000 22.291600 -0.000001 0.000005 -0.095376 5.414150 -3.403860 12.994500 -0.242716 -4.980390 92.556900 -7.233300 -70.471800 -5.348130 -0.000001 -0.000004 -67.317900 36.706900 38.874800 -24.328900 0.000322 -0.000009 -9.467660 0.241308 -91.445400 -22.291500 -0.000108 -0.000004 14.934000 5.612190 -12.100300 -2.192480 -6.469440 -0.000000 -176.267000 -23.321300 3.838510 39.081100 -0.000007 -0.000012 -0.007961 0.021591 20.240400 40.985400 -0.000006 -0.000013 -6.147310 8.480350 -54.221800 11.754300 -0.000000 0.000003 -0.073955 -0.374695 -32.108300 -2.192510 6.469440 -0.000001 -170.037000 10.868300 153.909000 -39.081100 -0.002282 -0.040193 -0.020691 0.044221 28.486300 -40.985400 0.000008 0.000006 2.330130 8.937640 -63.252300 -11.754300 -0.000006 -0.000006 -0.031047 -0.222223 -25.679600
0.000000 0.000000 0.000000 0.000000 0.000000 -0.000000 135.856000 91.132400 153.698000 97.176900 -43.245800 -0.200479 15.735700 0.000005 -0.000001 37.941800 81.535700 -36.793300 8.984550 -0.406207 -0.000000 2.848400 -13.387700 2.637000 16.377300 -0.000001 -0.000001 0.866875 -13.483600 2.077940 6.456720 -0.000001 -0.000000 -0.506467 -14.378500 10.188500 12.994200 -0.242716 4.980390 -85.806400 -12.627000 -71.458000 5.348090 -0.000007 -0.000001 -49.760400 25.973500 -63.272300 24.328600 0.000019 0.000005 10.691100 -5.306350 -116.099000 22.291600 -0.000001 0.000005 0.596388 5.416030 -3.463720 12.994500 -0.242716 -4.980390 92.170100 -6.248780 -70.805500 -5.348130 -0.000001 -0.000004 -67.557600 34.337400 37.473100 -24.328900 0.000322 -0.000009 -9.064560 0.212084 -91.327700 -22.291500 -0.000108 -0.000004 16.916900 5.608640 -11.871000 -2.192480 -6.469440 -0.000000 -177.418000 -23.069000 5.128680 39.081100 -0.000007 -0.000012 -0.022836 0.052814 23.382900 40.985400 -0.000006 -0.000013 -6.921800 7.798210 -56.728700 11.754300 -0.000000 0.000003 -0.111666 -0.472636 -36.364100 -2.192510 6.469440 -0.000001 -164.821000 18.179600 153.379000 -39.081100 -0.002282 -0.040193 -0.007056 0.028010 20.328800 -40.985400 0.000008 0.000006 0.421193 7.569250 -63.262500 -11.754300 -0.000006 -0.000006 -0.032363 -0.228095 -25.923500
0.000000 0.000000 0.000000 0.000000 0.000000 -0.000000 133.719000 89.144400 157.445000 98.859700 -44.725600 0.915490 15.735700 0.000005 -0.000001 37.456900 81.628200 -36.441000 8.984550 -0.406207 -0.000000 2.601050 -13.326200 2.340660 16.377300 -0.000001 -0.000001 0.579453 -13.467500 1.690340 6.456720 -0.000001 -0.000000 -0.675927 -14.165000 9.967270 12.994200 -0.242716 4.980390 -86.879400 -10.044100 -72.646200 5.348090 -0.000007 -0.000001 -46.302500 27.498900 -62.879600 24.328600 0.000019 0.000005 10.612400 -4.932900 -114.651000 22.291600 -0.000001 0.000005 1.141730 5.434440 -4.089570 12.994500 -0.242716 -4.980390 91.205800 -3.510750 -71.030900 -5.348130 -0.000001 -0.000004 -67.545500 33.456100 35.137600 -24.328900 0.000322 -0.000009 -10.738900 -0.193713 -88.983400 -22.291500 -0.000108 -0.000004 21.254000 5.625580 -12.923900 -2.192480 -6.469440 -0.000000 -177.997000 -22.411200 6.153230 39.081100 -0.000007 -0.000012 -0.037133 0.070319 27.837300 40.985400 -0.000006 -0.000013 -8.387340 8.884390 -58.722500 11.754300 -0.000000 0.000003 -0.174820 -0.601555 -42.186900 -2.192510 6.469440 -0.000001 -160.959000 23.287400 151.330000 -39.081100 -0.002282 -0.040193 -0.016108 0.052347 20.362900 -40.985400 0.000008 0.000006 1.673180 1.988610 -63.992200 -11.754300 -0.000006 -0.000006 -0.031467 -0.224110 -25.758000
0.000000 0.000000 0.000000 0.000000 0.000000 -0.000000 131.184000 87.058300 161.602000 100.288000 -44.672700 1.913130 15.735700 0.000005 -0.000001 35.824200 81.804600 -34.728100 8.984550 -0.406207 -0.000000 2.010720 -13.336700 2.432840 16.377300 -0.000001 -0.000001 0.033179 -14.276800 1.497810 6.456720 -0.000001 -0.000000 -0.556467 -13.658900 8.016940 12.994200 -0.242716 4.980390 -88.766800 -4.753160 -75.480200 5.348090 -0.000007 -0.000001 -42.834300 30.919500 -59.543500 24.328600 0.000019 0.000005 11.400600 -4.628960 -111.816000 22.291600 -0.000001 0.000005 2.154800 5.462460 -5.085980 12.994500 -0.242716 -4.980390 89.524200 1.355580 -70.686900 -5.348130 -0.000001 -0.000004 -66.289300 35.631700 31.441700 -24.328900 0.000322 -0.000009 -15.931400 -1.717660 -84.027400 -22.291500 -0.000108 -0.000004 27.892100 5.645810 -14.577200 -2.192480 -6.469440 -0.000000 -176.979000 -23.845900 5.890840 39.081100 -0.000007 -0.000012 -0.018655 0.026411 35.235900 40.985400 -0.000006 -0.000013 -9.625560 12.657700 -57.194300 11.754300 -0.000000 0.000003 -0.302587 -0.793234 -51.537200 -2.192510 6.469440 -0.000001 -159.552000 25.106100 149.353000 -39.081100 -0.002282 -0.040193 -0.118259 0.250368 25.899500 -40.985400 0.000008 0.000006 22.077700 -0.576660 -62.902700 -11.754300 -0.000006 -0.000006 -0.025974 -0.198380 -24.691300
0.000000 0.000000 0.000000 0.000000 0.000000 -0.000000 128.105000 85.063100 165.932000 101.258000 -44.447600 4.151400 15.735700 0.000005 -0.000001 37.789100 81.972300 -36.428700 8.984550 -0.406207 -0.000000 2.279300 -12.744400 2.981410 16.377300 -0.000001 -0.000001 -0.870253 -15.279200 1.557020 6.456720 -0.000001 -0.000000 -0.852872 -13.073100 4.569130 12.994200 -0.242716 4.980390 -90.180700 0.916971 -78.798300 5.348090 -0.000007 -0.000001 -43.027000 36.080900 -52.277600 24.328600 0.000019 0.000005 12.637500 -3.713170 -106.110000 22.291600 -0.000001 0.000005 3.696390 5.513260 -7.059510 12.994500 -0.242716 -4.980390 87.566900 6.452740 -69.292500 -5.348130 -0.000001 -0.000004 -62.783200 42.627200 24.242900 -24.328900 0.000322 -0.000009 -25.662400 -5.698410 -78.340900 -22.291500 -0.000108 -0.000004 33.451000 5.638490 -14.073100 -2.192480 -6.469440 -0.000000 -174.008000 -25.300300 4.151400 39.081100 -0.000007 -0.000012 0.123451 -0.116014 46.778100 40.985400 -0.000006 -0.000013 -11.534000 16.135400 -48.146200 11.754300 -0.000000 0.000003 -0.399575 -0.903475 -57.493600 -2.192510 6.469440 -0.000001 -163.459000 20.893600 148.278000 -39.081100 -0.002282 -0.040193 -0.566777 0.697481 39.261100 -40.985400 0.000008 0.000006 22.589600 -8.403320 -68.983100 -11.754300 -0.000006 -0.000006 -0.017852 -0.155088 -22.905700
